<svg id="Capa_1" data-name="Capa 1" xmlns="http://www.w3.org/2000/svg" viewBox="0 0 413.31 365.64"><defs><style>.cls-1{fill:#5b5b5f;}.cls-2{fill:#c16223;}</style></defs><title>isotipo-mf-colores</title><g id="mf"><path class="cls-1" d="M375.17,116.64H311.48L325.89,0H282.17a38.49,38.49,0,0,0-9.91,1.37q-5.13,1.36-8.54,7.17l-76.17,131c-2.17,3.64-4.24,7.29-6.24,10.93l-5.82,10.65q-2.53-11-6.05-21.61L125.72,8.38a13.42,13.42,0,0,0-2.56-5A9,9,0,0,0,119.49.94a14.43,14.43,0,0,0-4.87-.77H65.94L45.81,169.84a52.38,52.38,0,0,0,4.42,28.44l9.5,20.56a6.53,6.53,0,0,0,11.31.67l13.47-20.67a66.63,66.63,0,0,0,10.38-28.67l6.58-67q.51-4.44.77-9.91T102.83,82l43.73,128.78a15.2,15.2,0,0,0,6.74,8.54,21.72,21.72,0,0,0,11.36,2.9h7.52a25.67,25.67,0,0,0,11.95-2.82,21.86,21.86,0,0,0,8.88-8.62L267.82,82.32q-1.36,6-2.48,11.53T263.72,104l-7.41,61.61L238.05,316.16a44.17,44.17,0,0,0,43.83,49.48l11.89-101.08H315.3a49.39,49.39,0,0,0,49-42.9H299l7.9-62.12H413A38.17,38.17,0,0,0,375.17,116.64Z"/><path id="chispa" class="cls-2" d="M127.14,241.15l-39,4.27c-1.15.12-2.09-.59-1.76-1.33l9.31-20.73c.46-1-1.46-1.81-2.62-1.05l-27.5,18.07a2.19,2.19,0,0,1-2.21,0l-27.5-18.07c-1.16-.76-3.08,0-2.61,1.05l9.31,20.73c.33.74-.62,1.45-1.77,1.33l-39-4.27C.21,241-.68,242.37.64,243l27,13.43c1,.51.74,1.6-.5,1.84L2.55,263.12c-1.74.34-1.38,2.05.43,2.06l26.51.14h11.2L47,264c.57-.12.7-.66.22-.92l-12.37-6.71c-.6-.33-.19-1,.55-.94l17.84,2.14c.52.06.95-.3.8-.67L49.81,246.5c-.21-.52.67-.91,1.2-.53l12.58,9a.93.93,0,0,0,1,0l12.59-9c.53-.38,1.4,0,1.19.53l-4.26,10.36c-.15.37.28.73.81.67l17.83-2.14c.75-.09,1.15.61.55.94L80.94,263c-.48.26-.34.8.23.92l6.34,1.36h9.6l28.87-.15c1.81,0,2.17-1.71.43-2.05l-24.62-4.83c-1.24-.24-1.53-1.33-.49-1.84l27-13.43C129.66,242.37,128.77,241,127.14,241.15Z"/></g></svg>